# xmcd
#
# Track frame offsets: 
#        150
#        24342
#        57390
#        74905
#        114807
#        153230
#        187684
#        215705
#        266012
#
# Disc length: 4054 seconds
#
# Revision: 2
# Processed by: cddbd v1.5.2PL0 Copyright (c) Steve Scherf et al.
# Submitted via: ExactAudioCopy v0.99pb4
#
DISCID=7b0fd409
DTITLE=Christine Santelli Band - Live In Paris
DYEAR=1996
DGENRE=
TTITLE0=Turtles Blues
TTITLE1=Love Me Like A Man
TTITLE2=Since I Moved To Georgia
TTITLE3=I'd Rather Go Blind
TTITLE4=Shaky Ground
TTITLE5=Caledonia
TTITLE6=Big Boss Man
TTITLE7=How Blue Can You Get?
TTITLE8=Evil
EXTD=
EXTT0=
EXTT1=
EXTT2=
EXTT3=
EXTT4=
EXTT5=
EXTT6=
EXTT7=
EXTT8=
PLAYORDER=
